HIERARCHY
ROOT root
{
	OFFSET 0.000000 0.000000 0.000000
	CHANNELS 6 Xposition Yposition Zposition Zrotation Yrotation Xrotation
	JOINT lhip
	{
		OFFSET 0.058581 -0.082280 -0.017664
		CHANNELS 3 Zrotation Yrotation Xrotation
		JOINT lknee
		{
			OFFSET 0.043451 -0.386469 0.008037
			CHANNELS 3 Zrotation Yrotation Xrotation
			JOINT lankle
			{
				OFFSET -0.014790 -0.426874 -0.037428
				CHANNELS 3 Zrotation Yrotation Xrotation
				JOINT ltoe
				{
					OFFSET 0.041054 -0.060286 0.122042
					CHANNELS 3 Zrotation Yrotation Xrotation
					End Site
					{
						OFFSET 0.000000 0.000000 0.000000
					}
				}
			}
		}
	}
	JOINT rhip
	{
		OFFSET -0.060310 -0.090513 -0.013543
		CHANNELS 3 Zrotation Yrotation Xrotation
		JOINT rknee
		{
			OFFSET -0.043257 -0.383688 -0.004843
			CHANNELS 3 Zrotation Yrotation Xrotation
			JOINT rankle
			{
				OFFSET 0.019056 -0.420046 -0.034562
				CHANNELS 3 Zrotation Yrotation Xrotation
				JOINT rtoe
				{
					OFFSET -0.034840 -0.062106 0.130323
					CHANNELS 3 Zrotation Yrotation Xrotation
					End Site
					{
						OFFSET 0.000000 0.000000 0.000000
					}
				}
			}
		}
	}
	JOINT lowerback
	{
		OFFSET 0.004439 0.124404 -0.038385
		CHANNELS 3 Zrotation Yrotation Xrotation
		JOINT upperback
		{
			OFFSET 0.004488 0.137956 0.026820
			CHANNELS 3 Zrotation Yrotation Xrotation
			JOINT chest
			{
				OFFSET -0.002265 0.056032 0.002855
				CHANNELS 3 Zrotation Yrotation Xrotation
				JOINT lowerneck
				{
					OFFSET -0.013390 0.211636 -0.033468
					CHANNELS 3 Zrotation Yrotation Xrotation
					JOINT upperneck
					{
						OFFSET 0.010113 0.088937 0.050410
						CHANNELS 3 Zrotation Yrotation Xrotation
						End Site
						{
							OFFSET 0.000000 0.000000 0.000000
						}
					}
				}
				JOINT lclavicle
				{
					OFFSET 0.071702 0.114000 -0.018898
					CHANNELS 3 Zrotation Yrotation Xrotation
					JOINT lshoulder
					{
						OFFSET 0.122921 0.045205 -0.019046
						CHANNELS 3 Zrotation Yrotation Xrotation
						JOINT lelbow
						{
							OFFSET 0.255332 -0.015649 -0.022946
							CHANNELS 3 Zrotation Yrotation Xrotation
							JOINT lwrist
							{
								OFFSET 0.265709 0.012698 -0.007375
								CHANNELS 3 Zrotation Yrotation Xrotation
								End Site
								{
									OFFSET 0.000000 0.000000 0.000000
								}
							}
						}
					}
				}
				JOINT rclavicle
				{
					OFFSET -0.082954 0.112472 -0.023707
					CHANNELS 3 Zrotation Yrotation Xrotation
					JOINT rshoulder
					{
						OFFSET -0.113228 0.046853 -0.008472
						CHANNELS 3 Zrotation Yrotation Xrotation
						JOINT relbow
						{
							OFFSET -0.260127 -0.014369 -0.031269
							CHANNELS 3 Zrotation Yrotation Xrotation
							JOINT rwrist
							{
								OFFSET -0.269108 0.006794 -0.006027
								CHANNELS 3 Zrotation Yrotation Xrotation
								End Site
								{
									OFFSET 0.000000 0.000000 0.000000
								}
							}
						}
					}
				}
			}
		}
	}
}
MOTION
Frames: 10
Frame Time: 0.033333
-0.068153 0.767690 0.985784 84.418907 0.007751 84.900191 6.606993 2.222546 -23.923851 -3.053259 9.530833 5.073190 -0.319254 8.991502 -8.045975 0.000000 -0.000000 0.000000 -2.416150 -6.281234 20.701906 2.477405 7.398478 2.665284 0.300341 0.163594 -22.653126 0.000000 -0.000000 0.000000 -0.120081 8.759575 6.155477 1.987430 -3.133865 2.795825 0.508352 0.653349 1.439926 2.586372 -7.543596 -3.916532 3.518741 -11.645103 -3.207535 -23.339967 10.391201 6.513791 -59.804815 8.669222 11.509149 -0.660980 -37.177185 23.229701 -3.996952 -8.457077 -13.059082 20.668999 -3.631692 3.183420 56.343135 2.087895 10.838014 -7.253353 53.058172 -3.142353 -2.674439 11.196723 -30.002020 
-0.032993 0.773701 0.982613 83.851487 0.142389 85.209546 6.349062 1.740447 -24.139589 -3.336802 9.423809 6.198761 -0.160248 9.110833 -8.265218 0.000000 -0.000000 0.000000 -3.515976 -6.264696 22.110590 2.611320 8.622806 3.642531 1.056608 0.589358 -22.216008 0.000000 -0.000000 0.000000 -0.000559 9.072857 5.283663 2.150162 -3.260342 2.871841 0.493273 0.681166 1.458216 2.394224 -7.370142 -3.522851 3.220200 -11.467646 -2.899464 -23.326106 10.453193 6.347553 -60.536146 8.809011 11.785683 -1.076036 -37.116418 23.021357 -4.126634 -8.352055 -14.325298 20.755486 -3.962201 3.234776 56.375569 1.202827 11.422849 -6.700949 53.605864 -2.235402 -2.933387 10.949453 -29.745568 
0.004408 0.780447 0.980202 82.956201 0.199086 85.855858 6.246499 0.521646 -24.109271 -3.432156 10.373967 8.848689 0.394900 9.450117 -7.832040 0.000000 -0.000000 0.000000 -4.839088 -5.806679 23.183286 2.686063 9.170079 4.789040 2.160656 1.506330 -21.365143 0.000000 -0.000000 0.000000 -0.187773 9.418503 4.025218 2.400598 -3.264736 2.817427 0.467206 0.795671 1.322196 2.628880 -7.437405 -3.333641 2.966209 -10.982920 -2.457503 -23.384994 11.248483 6.289517 -60.720035 8.590788 12.124793 -1.262018 -37.608897 24.349748 -4.923724 -8.980099 -13.925146 20.796485 -4.567658 3.715906 56.482272 0.460257 11.778970 -6.131460 53.482729 -1.323401 -2.211754 11.131155 -29.711501 
0.041990 0.787126 0.979573 82.333032 0.030007 86.515806 5.777338 0.483320 -24.403243 -2.994358 11.646859 10.805431 0.594511 9.582821 -0.662032 0.000000 -0.000000 0.000000 -5.833802 -5.540684 23.301443 2.206936 9.474661 7.215735 3.222098 2.135993 -18.767581 0.000000 -0.000000 0.000000 -0.888580 9.588089 2.777538 2.675579 -3.315439 3.022317 0.490783 0.682032 1.081476 2.568098 -7.798165 -3.087346 3.331720 -10.238453 -2.440070 -23.405237 11.533187 6.239340 -60.566494 8.296048 12.738855 -1.978838 -38.091374 24.751388 -4.702540 -8.389450 -14.658966 21.252570 -5.073374 3.653575 56.304544 -0.146665 12.471801 -5.458190 52.741393 -0.970912 -2.240901 10.706489 -29.859419 
0.081655 0.795878 0.982445 82.306040 -0.714806 86.941916 5.363543 -0.344577 -24.533278 -4.131826 11.524286 14.820333 0.834088 9.805060 0.045216 0.000000 -0.000000 0.000000 -7.357793 -5.457981 22.732242 2.116313 8.715181 11.307659 3.036950 2.413059 -16.632579 0.000000 -0.000000 0.000000 -1.974728 9.784101 1.492451 2.898454 -3.654891 3.026897 0.413494 0.349583 1.192645 2.747783 -7.746465 -3.187728 3.287827 -9.980833 -1.918632 -23.359015 11.388104 6.082091 -60.339791 7.706461 13.343746 -2.415825 -37.594396 25.118474 -6.507641 -8.616678 -14.676772 21.698609 -6.159229 3.314789 56.788978 -0.499086 12.502131 -5.518179 50.837557 -1.163417 1.933563 10.385743 -29.444417 
0.116010 0.803666 0.989899 82.053862 -1.544797 87.526554 4.706929 -1.237383 -23.633145 -5.232102 12.207184 16.614409 1.932582 9.344447 -2.446551 0.000000 -0.000000 0.000000 -8.481914 -5.509655 19.433544 1.993150 7.490620 19.263604 5.112795 2.093396 -11.199573 0.000000 -0.000000 0.000000 -3.164306 9.678632 0.775788 2.993883 -3.659144 3.003264 0.241198 0.197153 0.773460 2.889006 -7.958326 -3.191705 3.562701 -9.586343 -1.592866 -23.216437 10.149363 6.271026 -59.926049 6.963524 13.755286 -1.884772 -37.805169 24.982251 -7.462013 -9.102882 -14.411161 22.408913 -5.834216 3.332053 57.994900 -1.491315 12.637274 -8.954292 48.351075 -4.396683 3.911493 10.151162 -28.160533 
0.150603 0.813224 0.998440 82.483836 -2.403162 87.365275 2.476077 -1.391547 -20.676769 -5.683580 11.043373 15.868644 3.522710 9.612490 -4.762647 0.000000 -0.000000 0.000000 -9.252499 -4.573024 15.830086 2.269430 4.497458 28.414601 5.934068 -0.106032 -5.621134 0.000000 -0.000000 0.000000 -3.788387 8.560872 1.151717 2.838653 -3.285467 2.379512 -0.092194 -0.040033 0.899563 2.886472 -8.246603 -3.259316 3.402327 -8.870750 -1.183259 -22.911422 8.917808 6.394778 -59.364682 5.541476 14.145460 -1.637413 -37.797609 25.338738 -6.041696 -10.024237 -13.577371 22.381687 -5.273333 2.866721 59.773162 -2.452705 12.843648 -11.348568 45.087310 -6.961308 4.341846 10.065322 -27.203369 
0.183856 0.821881 1.006895 82.650085 -2.881368 87.013650 0.789974 -1.230016 -16.982836 -6.025960 9.949246 13.926726 4.555676 9.778896 -6.826790 0.000000 -0.000000 0.000000 -9.327083 -4.030100 11.298321 1.661423 2.029244 38.234644 4.873305 -3.651193 -0.699581 0.000000 -0.000000 0.000000 -4.175936 7.220322 2.011194 2.806719 -2.824886 1.639956 -0.139247 -0.289371 1.012803 2.744642 -8.386099 -3.249942 3.153789 -7.828081 -1.236411 -22.625492 8.069387 6.303413 -58.967417 4.097356 13.737643 -1.378295 -37.933748 25.137614 -5.403489 -10.067834 -12.886612 22.380187 -5.130846 2.361462 60.650108 -3.046016 13.052360 -12.671619 43.179999 -8.263945 4.923120 9.989387 -25.665377 
0.215899 0.829402 1.014655 83.193973 -2.895527 86.040615 -0.423805 -0.743411 -12.494292 -6.302306 7.823688 11.639738 4.604375 10.188049 -7.991498 0.000000 -0.000000 0.000000 -8.501227 -3.467227 7.749581 -0.153059 -0.521249 46.097116 3.617320 -7.134084 1.602794 0.000000 -0.000000 0.000000 -4.091350 5.575544 3.341129 2.784938 -2.579471 1.314791 -0.031351 -0.680317 1.213285 2.432783 -8.148319 -2.942702 2.826602 -6.915220 -1.658795 -22.566316 7.018480 6.085253 -58.269054 2.575522 13.330639 -1.363528 -38.522897 23.421739 -3.946242 -10.069734 -13.987602 22.217491 -4.672612 2.055319 60.321164 -3.554835 13.495973 -11.967117 42.804157 -7.900150 4.987084 10.054957 -24.980340 
0.246023 0.835996 1.021623 83.921693 -2.690062 85.662098 -1.321014 -0.073444 -9.097287 -6.229798 5.808840 10.035889 4.336260 10.475647 -9.029510 0.000000 -0.000000 0.000000 -7.239016 -3.505952 3.683728 -2.376745 -2.382526 51.504261 2.563700 -9.498762 -0.302252 0.000000 -0.000000 0.000000 -3.992722 4.254745 4.016721 2.891062 -2.585024 0.903462 0.165804 -1.212179 1.273263 2.076542 -8.134820 -2.974017 2.718550 -6.384521 -1.395464 -22.416150 6.001068 6.247554 -58.154831 0.647145 12.677806 -0.351921 -38.883190 20.293006 -3.080061 -10.131996 -15.294516 22.086947 -4.453973 1.782567 59.994388 -4.378416 13.829727 -11.816785 43.153628 -6.787662 6.141296 10.751484 -23.900498 
